HIERARCHY
ROOT Hips
{
  OFFSET 0 0 0
  CHANNELS 6 Xposition Yposition Zposition Zrotation Yrotation Xrotation
  JOINT LeftThigh
  {
    OFFSET 8.409438 0 -5.917753
    CHANNELS 3 Zrotation Yrotation Xrotation
    JOINT LeftLeg
    {
      OFFSET 0 0 -42.358652
      CHANNELS 3 Zrotation Yrotation Xrotation
      JOINT LeftFoot
      {
        OFFSET 0 0 -39.357303
        CHANNELS 3 Zrotation Yrotation Xrotation
      }
    }
  }
  JOINT RightThigh
  {
    OFFSET -8.409438 0 -5.917753
    CHANNELS 3 Zrotation Yrotation Xrotation
    JOINT RightLeg
    {
      OFFSET 0 0 -42.358652
      CHANNELS 3 Zrotation Yrotation Xrotation
      JOINT RightFoot
      {
        OFFSET 0 0 -39.357303
        CHANNELS 3 Zrotation Yrotation Xrotation
      }
    }
  }
  JOINT SpineLow
  {
    OFFSET 0 0 4.719101
    CHANNELS 3 Zrotation Yrotation Xrotation
    JOINT SpineMid
    {
      OFFSET 0 0 12.899191
      CHANNELS 3 Zrotation Yrotation Xrotation
      JOINT Chest
      {
        OFFSET 0 0 12.899191
        CHANNELS 3 Zrotation Yrotation Xrotation
        JOINT LeftShoulder
        {
          OFFSET 7.550562 1.41573 9.438202
          CHANNELS 3 Zrotation Yrotation Xrotation
          JOINT LeftArm
          {
            OFFSET 9.155056 0 4.247191
            CHANNELS 3 Zrotation Yrotation Xrotation
            JOINT LeftForearm
            {
              OFFSET 0 0 25.771955
              CHANNELS 3 Zrotation Yrotation Xrotation
              JOINT LeftHand
              {
                OFFSET 0 0 25.197169
                CHANNELS 3 Zrotation Yrotation Xrotation
              }
            }
          }
        }
        JOINT RightShoulder
        {
          OFFSET -7.550562 1.41573 9.438202
          CHANNELS 3 Zrotation Yrotation Xrotation
          JOINT RightArm
          {
            OFFSET -9.155056 0 4.247191
            CHANNELS 3 Zrotation Yrotation Xrotation
            JOINT RightForearm
            {
              OFFSET 0 0 -25.771955
              CHANNELS 3 Zrotation Yrotation Xrotation
              JOINT RightHand
              {
                OFFSET 0 0 -25.197169
                CHANNELS 3 Zrotation Yrotation Xrotation
              }
            }
          }
        }
        JOINT Neck
        {
          OFFSET 0 0 15.101124
          CHANNELS 3 Zrotation Yrotation Xrotation
          JOINT Head
          {
            OFFSET 0 0 11.325843
            CHANNELS 3 Zrotation Yrotation Xrotation
            End Site
            {
              OFFSET 0 0 14.157303
            }
          }
        }
      }
    }
  }
}
MOTION
Frames: 8
Frame Time: 0.0
0.0  101.685394  0.0  5.682746  31.629269  -92.619095  5.253968  -20.001814  28.222836  -5.070107  8.562065  21.429736  -2.712991  8.110552  -2.738393  -33.123231  11.215934  -51.685018  4.291508  8.691476  62.957585  26.556889  7.14582  3.663019  -7.25421  1.53616  0.122463  -19.845502  4.192125  -0.127255  -19.845502  4.192125  -0.127255  9.241183  27.192787  17.031571  123.734272  43.573748  175.36529  -56.449796  -29.437835  109.950899  88.395848  3.434012  -22.49116  36.021828  -8.739406  30.912227  103.184371  69.696051  19.043039  -41.496301  13.019837  -87.006137  91.865266  -5.173863  74.115531  2.361613  -3.331869  -3.670546  1.750754  -2.513232  -2.739294  
0.0  101.685394  0.0  5.538275  31.143973  -92.694857  5.746284  -20.116579  28.047017  -5.108543  8.647368  21.747841  -2.409728  8.371696  -2.447555  -32.346772  11.002771  -51.642008  4.343317  9.076864  63.085098  26.622411  7.132627  3.491172  -7.284489  1.567167  0.121341  -19.929286  4.27545  -0.141544  -19.929286  4.27545  -0.141544  9.293653  27.101266  17.152146  124.212155  44.671044  175.175688  -56.77837  -29.87667  110.780672  89.058813  4.409059  -23.106559  36.210641  -8.902637  31.037754  102.868812  69.367135  18.659924  -41.933457  13.662796  -88.238171  90.962948  -6.836704  73.414679  2.555837  -3.550099  -3.745889  1.894565  -2.678407  -2.793713  
0.0  101.685394  0.0  5.440784  30.630778  -92.684615  6.483687  -20.454175  27.76226  -5.334935  8.781934  21.937831  -2.319978  8.544507  -2.188994  -31.563729  10.802446  -51.677631  4.484908  9.327032  63.223032  26.724373  7.082483  3.358479  -7.288142  1.562112  0.118391  -19.939326  4.260866  -0.148247  -19.939326  4.260866  -0.148247  9.305487  27.281591  17.28741  124.377689  45.802778  174.782572  -57.315667  -30.387487  111.904081  89.589833  5.68075  -23.710253  36.228814  -8.844416  31.217715  102.57718  69.130471  18.315085  -42.385222  14.320706  -89.53387  89.950036  -8.861265  72.431243  2.675014  -3.664441  -3.850981  1.982551  -2.765371  -2.871258  
0.0  101.685394  0.0  4.999109  29.163864  -93.449546  7.984142  -21.198619  27.873082  -4.882944  9.029106  22.984144  -2.789966  8.324715  -2.451113  -29.70666  10.65387  -51.003642  4.638362  9.462445  63.387112  26.747799  7.014646  3.216892  -7.153652  1.564816  0.215913  -19.565185  4.297845  0.123848  -19.565187  4.297845  0.123848  7.992643  27.232015  16.986875  126.02526  46.745763  175.060265  -58.174393  -31.052918  113.231012  90.053193  7.236648  -24.118593  36.275079  -8.87145  31.342872  102.395179  68.993416  18.0353  -42.787454  14.886921  -90.839649  89.029181  -11.279096  71.159608  2.865551  -3.749824  -4.00136  2.123921  -2.831338  -2.982422  
0.0  101.685394  0.0  4.957803  28.645915  -93.335788  9.014499  -21.848167  27.713282  -5.39395  9.254748  22.822693  -2.842271  8.43412  -2.199253  -28.910703  10.561598  -51.133293  4.738119  9.425791  63.552744  26.689546  6.979727  3.122491  -7.163965  1.551142  0.206137  -19.593708  4.257934  0.10073  -19.593708  4.257934  0.10073  7.827595  27.414036  17.069103  126.175927  47.884921  174.744793  -59.103005  -31.72332  114.597767  90.623651  9.003538  -24.245807  36.182128  -8.815012  31.435056  102.53791  68.939411  18.048771  -43.176961  15.376595  -92.065315  88.343342  -14.009035  69.596086  3.008684  -3.805811  -4.161488  2.229857  -2.875076  -3.101297  
0.0  101.685394  0.0  4.888915  28.119645  -93.202384  8.972028  -21.758705  26.875428  -4.752121  9.375029  23.575203  -2.686818  8.514088  -1.912443  -28.12327  10.449557  -51.301552  4.92811  9.163452  63.78143  26.397885  6.94435  3.015561  -7.194007  1.525352  0.193545  -19.676102  4.184325  0.072332  -19.676102  4.184325  0.072332  7.317804  27.602662  16.998575  126.856792  49.201399  174.650303  -59.992591  -32.303613  115.85329  91.339254  10.941931  -24.097911  36.198122  -8.770316  31.46635  102.965892  68.970729  18.3438  -43.616998  15.88517  -93.176664  87.943578  -16.877447  67.706002  3.237851  -3.816378  -4.351056  2.400428  -2.885593  -3.241948  
0.0  101.685394  0.0  4.77356  27.677327  -92.94609  9.746992  -22.155338  26.804599  -5.24323  9.434699  23.014949  -2.506697  8.580963  -1.49403  -27.477249  10.204679  -51.595452  5.035268  9.016514  63.951267  26.209909  6.933633  2.988084  -7.257915  1.457188  0.160569  -19.851362  3.989844  -6.22E-4  -19.851361  3.989844  -6.22E-4  7.296316  27.883509  16.978228  127.201812  50.679636  174.42654  -60.763088  -32.790577  117.049521  92.088297  13.024024  -23.627273  36.210577  -8.644127  31.469181  103.838772  68.989955  19.04656  -44.118154  16.519525  -94.137793  87.736918  -19.59947  65.608459  3.561031  -3.728496  -4.539119  2.642276  -2.823105  -3.381523  
0.0  101.685394  0.0  4.575959  27.197113  -92.70514  10.433918  -22.458679  26.760436  -5.71728  9.369694  22.389084  -2.33746  8.613929  -1.062885  -27.03708  10.360753  -51.780255  5.366787  8.110952  64.176095  25.455879  6.663139  2.697532  -7.324716  1.367844  0.138235  -20.033323  3.741154  -0.038135  -20.033324  3.741154  -0.038135  7.219675  28.169163  16.716964  127.653823  52.233989  174.147474  -61.407231  -33.295628  118.187348  92.755845  15.195142  -22.832712  36.238587  -8.495505  31.345339  104.945869  69.017631  19.99329  -44.682007  17.306175  -94.95819  87.656391  -22.112024  63.421987  3.950096  -3.588658  -4.749274  2.933893  -2.722506  -3.537745  
